<mxfile host="app.diagrams.net" agent="Mozilla/5.0 (Windows NT 10.0; Win64; x64) AppleWebKit/537.36 (KHTML, like Gecko) Chrome/109.0.0.0 Safari/537.36" version="26.0.16">
  <diagram name="PÃ¡gina-1" id="UsycYZGFSsphmftQ30QH">
    <mxGraphModel dx="1320" dy="2883" grid="1" gridSize="12" guides="0" tooltips="1" connect="1" arrows="1" fold="1" page="1" pageScale="1" pageWidth="2200" pageHeight="2200" math="0" shadow="0">
      <root>
        <mxCell id="0" />
        <mxCell id="1" parent="0" />
        <mxCell id="an_xKArvUmKsYVzUiVtq-6" value="Venta_Registrada" style="whiteSpace=wrap;html=1;align=center;perimeterSpacing=0;strokeWidth=1;" parent="1" vertex="1">
          <mxGeometry x="512" y="252" width="120" height="70" as="geometry" />
        </mxCell>
        <mxCell id="an_xKArvUmKsYVzUiVtq-10" value="Ciudad" style="ellipse;whiteSpace=wrap;html=1;align=center;" parent="1" vertex="1">
          <mxGeometry x="264" y="264" width="100" height="40" as="geometry" />
        </mxCell>
        <mxCell id="an_xKArvUmKsYVzUiVtq-11" value="Cliente" style="whiteSpace=wrap;html=1;align=center;" parent="1" vertex="1">
          <mxGeometry x="1560" y="312" width="100" height="40" as="geometry" />
        </mxCell>
        <mxCell id="an_xKArvUmKsYVzUiVtq-12" value="Id" style="ellipse;whiteSpace=wrap;html=1;align=center;fontStyle=4;" parent="1" vertex="1">
          <mxGeometry x="396" y="36" width="100" height="40" as="geometry" />
        </mxCell>
        <mxCell id="an_xKArvUmKsYVzUiVtq-13" value="ID" style="ellipse;whiteSpace=wrap;html=1;align=center;fontStyle=4;" parent="1" vertex="1">
          <mxGeometry x="1584" y="252" width="100" height="40" as="geometry" />
        </mxCell>
        <mxCell id="an_xKArvUmKsYVzUiVtq-17" value="ID" style="ellipse;whiteSpace=wrap;html=1;align=center;fontStyle=4;" parent="1" vertex="1">
          <mxGeometry x="876" y="1068" width="108" height="52" as="geometry" />
        </mxCell>
        <mxCell id="an_xKArvUmKsYVzUiVtq-20" value="Fecha" style="ellipse;whiteSpace=wrap;html=1;align=center;" parent="1" vertex="1">
          <mxGeometry x="720" y="72" width="100" height="40" as="geometry" />
        </mxCell>
        <mxCell id="an_xKArvUmKsYVzUiVtq-26" value="Hora" style="ellipse;whiteSpace=wrap;html=1;align=center;" parent="1" vertex="1">
          <mxGeometry x="780" y="144" width="100" height="40" as="geometry" />
        </mxCell>
        <mxCell id="an_xKArvUmKsYVzUiVtq-27" value="Nombre" style="ellipse;whiteSpace=wrap;html=1;align=center;" parent="1" vertex="1">
          <mxGeometry x="1392" y="444" width="100" height="40" as="geometry" />
        </mxCell>
        <mxCell id="an_xKArvUmKsYVzUiVtq-40" value="Tiene" style="shape=rhombus;perimeter=rhombusPerimeter;whiteSpace=wrap;html=1;align=center;" parent="1" vertex="1">
          <mxGeometry x="984" y="348" width="120" height="60" as="geometry" />
        </mxCell>
        <mxCell id="an_xKArvUmKsYVzUiVtq-42" value="Utiliza" style="shape=rhombus;perimeter=rhombusPerimeter;whiteSpace=wrap;html=1;align=center;" parent="1" vertex="1">
          <mxGeometry x="912" y="443" width="120" height="60" as="geometry" />
        </mxCell>
        <mxCell id="an_xKArvUmKsYVzUiVtq-43" value="Administra" style="shape=rhombus;perimeter=rhombusPerimeter;whiteSpace=wrap;html=1;align=center;" parent="1" vertex="1">
          <mxGeometry x="552" y="456" width="120" height="60" as="geometry" />
        </mxCell>
        <mxCell id="an_xKArvUmKsYVzUiVtq-47" value="1" style="text;html=1;align=center;verticalAlign=middle;resizable=0;points=[];autosize=1;strokeColor=none;fillColor=none;" parent="1" vertex="1">
          <mxGeometry x="1392" y="324" width="36" height="24" as="geometry" />
        </mxCell>
        <mxCell id="an_xKArvUmKsYVzUiVtq-51" value="Nombre" style="ellipse;whiteSpace=wrap;html=1;align=center;" parent="1" vertex="1">
          <mxGeometry x="1692" y="276" width="100" height="40" as="geometry" />
        </mxCell>
        <mxCell id="an_xKArvUmKsYVzUiVtq-52" value="Genero" style="ellipse;whiteSpace=wrap;html=1;align=center;" parent="1" vertex="1">
          <mxGeometry x="1740" y="372" width="100" height="40" as="geometry" />
        </mxCell>
        <mxCell id="an_xKArvUmKsYVzUiVtq-55" value="TIpo" style="ellipse;whiteSpace=wrap;html=1;align=center;" parent="1" vertex="1">
          <mxGeometry x="1452" y="252" width="100" height="40" as="geometry" />
        </mxCell>
        <mxCell id="an_xKArvUmKsYVzUiVtq-58" value="N" style="text;html=1;align=center;verticalAlign=middle;resizable=0;points=[];autosize=1;strokeColor=none;fillColor=none;" parent="1" vertex="1">
          <mxGeometry x="732" y="360" width="36" height="24" as="geometry" />
        </mxCell>
        <mxCell id="an_xKArvUmKsYVzUiVtq-66" value="" style="endArrow=none;html=1;rounded=0;entryX=0;entryY=0.5;entryDx=0;entryDy=0;exitX=0.908;exitY=0.45;exitDx=0;exitDy=0;exitPerimeter=0;" parent="1" source="an_xKArvUmKsYVzUiVtq-40" target="an_xKArvUmKsYVzUiVtq-11" edge="1">
          <mxGeometry width="50" height="50" relative="1" as="geometry">
            <mxPoint x="1044" y="458" as="sourcePoint" />
            <mxPoint x="1094" y="408" as="targetPoint" />
          </mxGeometry>
        </mxCell>
        <mxCell id="an_xKArvUmKsYVzUiVtq-67" value="Medio_Pago" style="whiteSpace=wrap;html=1;align=center;" parent="1" vertex="1">
          <mxGeometry x="1200" y="456" width="100" height="40" as="geometry" />
        </mxCell>
        <mxCell id="an_xKArvUmKsYVzUiVtq-68" value="1" style="text;html=1;align=center;verticalAlign=middle;resizable=0;points=[];autosize=1;strokeColor=none;fillColor=none;" parent="1" vertex="1">
          <mxGeometry x="1104" y="432" width="36" height="24" as="geometry" />
        </mxCell>
        <mxCell id="an_xKArvUmKsYVzUiVtq-73" value="ID" style="ellipse;whiteSpace=wrap;html=1;align=center;fontStyle=4;" parent="1" vertex="1">
          <mxGeometry x="1404" y="501.48" width="100" height="40" as="geometry" />
        </mxCell>
        <mxCell id="an_xKArvUmKsYVzUiVtq-75" value="" style="endArrow=none;html=1;rounded=0;entryX=0;entryY=0.25;entryDx=0;entryDy=0;exitX=1;exitY=0.5;exitDx=0;exitDy=0;" parent="1" source="an_xKArvUmKsYVzUiVtq-42" target="an_xKArvUmKsYVzUiVtq-67" edge="1">
          <mxGeometry width="50" height="50" relative="1" as="geometry">
            <mxPoint x="1068" y="529" as="sourcePoint" />
            <mxPoint x="1118" y="479" as="targetPoint" />
          </mxGeometry>
        </mxCell>
        <mxCell id="an_xKArvUmKsYVzUiVtq-77" value="N" style="text;html=1;align=center;verticalAlign=middle;resizable=0;points=[];autosize=1;strokeColor=none;fillColor=none;" parent="1" vertex="1">
          <mxGeometry x="746" y="312" width="36" height="24" as="geometry" />
        </mxCell>
        <mxCell id="an_xKArvUmKsYVzUiVtq-92" style="edgeStyle=none;rounded=0;orthogonalLoop=1;jettySize=auto;html=1;" parent="1" source="an_xKArvUmKsYVzUiVtq-82" edge="1">
          <mxGeometry relative="1" as="geometry">
            <mxPoint x="492" y="668" as="targetPoint" />
          </mxGeometry>
        </mxCell>
        <mxCell id="an_xKArvUmKsYVzUiVtq-82" value="Empleado" style="whiteSpace=wrap;html=1;align=center;" parent="1" vertex="1">
          <mxGeometry x="384" y="648" width="150" height="100" as="geometry" />
        </mxCell>
        <mxCell id="an_xKArvUmKsYVzUiVtq-87" value="1" style="text;html=1;align=center;verticalAlign=middle;resizable=0;points=[];autosize=1;strokeColor=none;fillColor=none;" parent="1" vertex="1">
          <mxGeometry x="516" y="600" width="36" height="24" as="geometry" />
        </mxCell>
        <mxCell id="an_xKArvUmKsYVzUiVtq-89" value="N" style="text;html=1;align=center;verticalAlign=middle;resizable=0;points=[];autosize=1;strokeColor=none;fillColor=none;" parent="1" vertex="1">
          <mxGeometry x="564" y="396" width="36" height="24" as="geometry" />
        </mxCell>
        <mxCell id="an_xKArvUmKsYVzUiVtq-93" value="Email_Empresa" style="ellipse;whiteSpace=wrap;html=1;align=center;" parent="1" vertex="1">
          <mxGeometry x="612" y="816" width="100" height="40" as="geometry" />
        </mxCell>
        <mxCell id="an_xKArvUmKsYVzUiVtq-94" value="Email_Personal" style="ellipse;whiteSpace=wrap;html=1;align=center;" parent="1" vertex="1">
          <mxGeometry x="492" y="828" width="100" height="40" as="geometry" />
        </mxCell>
        <mxCell id="an_xKArvUmKsYVzUiVtq-95" value="Direccion" style="ellipse;whiteSpace=wrap;html=1;align=center;" parent="1" vertex="1">
          <mxGeometry x="240" y="780" width="100" height="40" as="geometry" />
        </mxCell>
        <mxCell id="an_xKArvUmKsYVzUiVtq-96" value="DNI" style="ellipse;whiteSpace=wrap;html=1;align=center;" parent="1" vertex="1">
          <mxGeometry x="192" y="732" width="100" height="40" as="geometry" />
        </mxCell>
        <mxCell id="an_xKArvUmKsYVzUiVtq-97" value="Apellido" style="ellipse;whiteSpace=wrap;html=1;align=center;" parent="1" vertex="1">
          <mxGeometry x="216" y="672" width="100" height="40" as="geometry" />
        </mxCell>
        <mxCell id="an_xKArvUmKsYVzUiVtq-98" value="Nombre" style="ellipse;whiteSpace=wrap;html=1;align=center;" parent="1" vertex="1">
          <mxGeometry x="204" y="612" width="100" height="40" as="geometry" />
        </mxCell>
        <mxCell id="an_xKArvUmKsYVzUiVtq-99" value="" style="endArrow=none;html=1;rounded=0;entryX=0.335;entryY=0.878;entryDx=0;entryDy=0;entryPerimeter=0;exitX=0.96;exitY=0.36;exitDx=0;exitDy=0;exitPerimeter=0;" parent="1" source="an_xKArvUmKsYVzUiVtq-82" target="an_xKArvUmKsYVzUiVtq-43" edge="1">
          <mxGeometry width="50" height="50" relative="1" as="geometry">
            <mxPoint x="576" y="686" as="sourcePoint" />
            <mxPoint x="626" y="636" as="targetPoint" />
          </mxGeometry>
        </mxCell>
        <mxCell id="an_xKArvUmKsYVzUiVtq-100" value="Descripcion" style="ellipse;whiteSpace=wrap;html=1;align=center;" parent="1" vertex="1">
          <mxGeometry x="1656" y="732" width="100" height="40" as="geometry" />
        </mxCell>
        <mxCell id="an_xKArvUmKsYVzUiVtq-101" value="Cargo" style="ellipse;whiteSpace=wrap;html=1;align=center;" parent="1" vertex="1">
          <mxGeometry x="300" y="816" width="100" height="40" as="geometry" />
        </mxCell>
        <mxCell id="an_xKArvUmKsYVzUiVtq-102" value="CUIL" style="ellipse;whiteSpace=wrap;html=1;align=center;" parent="1" vertex="1">
          <mxGeometry x="648" y="744" width="100" height="40" as="geometry" />
        </mxCell>
        <mxCell id="an_xKArvUmKsYVzUiVtq-105" value="Turno" style="ellipse;whiteSpace=wrap;html=1;align=center;" parent="1" vertex="1">
          <mxGeometry x="636" y="684" width="100" height="40" as="geometry" />
        </mxCell>
        <mxCell id="an_xKArvUmKsYVzUiVtq-117" value="ID" style="ellipse;whiteSpace=wrap;html=1;align=center;fontStyle=4;" parent="1" vertex="1">
          <mxGeometry x="1764" y="744" width="100" height="48" as="geometry" />
        </mxCell>
        <mxCell id="an_xKArvUmKsYVzUiVtq-120" value="Linea_De_Producto" style="ellipse;whiteSpace=wrap;html=1;align=center;" parent="1" vertex="1">
          <mxGeometry x="1872" y="792" width="100" height="40" as="geometry" />
        </mxCell>
        <mxCell id="an_xKArvUmKsYVzUiVtq-123" value="Categoria" style="whiteSpace=wrap;html=1;align=center;" parent="1" vertex="1">
          <mxGeometry x="1680" y="876" width="150" height="100" as="geometry" />
        </mxCell>
        <mxCell id="an_xKArvUmKsYVzUiVtq-125" value="Producto" style="whiteSpace=wrap;html=1;align=center;" parent="1" vertex="1">
          <mxGeometry x="1092" y="912" width="150" height="100" as="geometry" />
        </mxCell>
        <mxCell id="an_xKArvUmKsYVzUiVtq-129" value="Se_Identifica" style="shape=rhombus;perimeter=rhombusPerimeter;whiteSpace=wrap;html=1;align=center;" parent="1" vertex="1">
          <mxGeometry x="1404" y="888" width="120" height="60" as="geometry" />
        </mxCell>
        <mxCell id="an_xKArvUmKsYVzUiVtq-130" value="1" style="text;html=1;align=center;verticalAlign=middle;resizable=0;points=[];autosize=1;strokeColor=none;fillColor=none;" parent="1" vertex="1">
          <mxGeometry x="1598" y="864" width="36" height="24" as="geometry" />
        </mxCell>
        <mxCell id="an_xKArvUmKsYVzUiVtq-131" value="N" style="text;html=1;align=center;verticalAlign=middle;resizable=0;points=[];autosize=1;strokeColor=none;fillColor=none;" parent="1" vertex="1">
          <mxGeometry x="1320" y="876" width="36" height="24" as="geometry" />
        </mxCell>
        <mxCell id="an_xKArvUmKsYVzUiVtq-133" value="" style="endArrow=none;html=1;rounded=0;entryX=0;entryY=0.5;entryDx=0;entryDy=0;exitX=1;exitY=0.5;exitDx=0;exitDy=0;" parent="1" source="an_xKArvUmKsYVzUiVtq-129" target="an_xKArvUmKsYVzUiVtq-123" edge="1">
          <mxGeometry width="50" height="50" relative="1" as="geometry">
            <mxPoint x="1560" y="950" as="sourcePoint" />
            <mxPoint x="1610" y="900" as="targetPoint" />
          </mxGeometry>
        </mxCell>
        <mxCell id="an_xKArvUmKsYVzUiVtq-134" value="Precio_Actual" style="ellipse;whiteSpace=wrap;html=1;align=center;" parent="1" vertex="1">
          <mxGeometry x="852" y="996" width="100" height="40" as="geometry" />
        </mxCell>
        <mxCell id="an_xKArvUmKsYVzUiVtq-136" value="Unidad_Referencia" style="ellipse;whiteSpace=wrap;html=1;align=center;" parent="1" vertex="1">
          <mxGeometry x="1380" y="960" width="100" height="40" as="geometry" />
        </mxCell>
        <mxCell id="an_xKArvUmKsYVzUiVtq-137" value="Nombre" style="ellipse;whiteSpace=wrap;html=1;align=center;" parent="1" vertex="1">
          <mxGeometry x="984" y="1104" width="100" height="40" as="geometry" />
        </mxCell>
        <mxCell id="an_xKArvUmKsYVzUiVtq-139" value="Precio_Referencia" style="ellipse;whiteSpace=wrap;html=1;align=center;" parent="1" vertex="1">
          <mxGeometry x="1308" y="1020" width="108" height="60" as="geometry" />
        </mxCell>
        <mxCell id="an_xKArvUmKsYVzUiVtq-142" value="Fecha_Hora" style="ellipse;whiteSpace=wrap;html=1;align=center;" parent="1" vertex="1">
          <mxGeometry x="1236" y="1092" width="100" height="40" as="geometry" />
        </mxCell>
        <mxCell id="an_xKArvUmKsYVzUiVtq-149" value="Proveedor" style="ellipse;whiteSpace=wrap;html=1;align=center;" parent="1" vertex="1">
          <mxGeometry x="864" y="912" width="100" height="40" as="geometry" />
        </mxCell>
        <mxCell id="an_xKArvUmKsYVzUiVtq-152" value="Id" style="ellipse;whiteSpace=wrap;html=1;align=center;fontStyle=4;" parent="1" vertex="1">
          <mxGeometry x="1380" y="732" width="108" height="52" as="geometry" />
        </mxCell>
        <mxCell id="an_xKArvUmKsYVzUiVtq-155" value="Cantidad" style="ellipse;whiteSpace=wrap;html=1;align=center;" parent="1" vertex="1">
          <mxGeometry x="1428" y="576" width="100" height="40" as="geometry" />
        </mxCell>
        <mxCell id="an_xKArvUmKsYVzUiVtq-158" value="Origina" style="shape=rhombus;perimeter=rhombusPerimeter;whiteSpace=wrap;html=1;align=center;" parent="1" vertex="1">
          <mxGeometry x="1200" y="780" width="120" height="60" as="geometry" />
        </mxCell>
        <mxCell id="an_xKArvUmKsYVzUiVtq-160" value="" style="endArrow=none;html=1;rounded=0;entryX=0.5;entryY=1;entryDx=0;entryDy=0;" parent="1" edge="1">
          <mxGeometry width="50" height="50" relative="1" as="geometry">
            <mxPoint x="1236" y="910" as="sourcePoint" />
            <mxPoint x="1263" y="828" as="targetPoint" />
          </mxGeometry>
        </mxCell>
        <mxCell id="an_xKArvUmKsYVzUiVtq-162" value="N" style="text;html=1;align=center;verticalAlign=middle;resizable=0;points=[];autosize=1;strokeColor=none;fillColor=none;" parent="1" vertex="1">
          <mxGeometry x="1224" y="744" width="36" height="24" as="geometry" />
        </mxCell>
        <mxCell id="an_xKArvUmKsYVzUiVtq-163" value="1" style="text;html=1;align=center;verticalAlign=middle;resizable=0;points=[];autosize=1;strokeColor=none;fillColor=none;" parent="1" vertex="1">
          <mxGeometry x="1200" y="864" width="36" height="24" as="geometry" />
        </mxCell>
        <mxCell id="an_xKArvUmKsYVzUiVtq-168" value="" style="endArrow=none;html=1;rounded=0;entryX=0.75;entryY=1;entryDx=0;entryDy=0;exitX=0;exitY=0.5;exitDx=0;exitDy=0;" parent="1" source="i3SQ65WdC5mPxwsUUdCW-2" target="an_xKArvUmKsYVzUiVtq-6" edge="1">
          <mxGeometry width="50" height="50" relative="1" as="geometry">
            <mxPoint x="912" y="552" as="sourcePoint" />
            <mxPoint x="878" y="492" as="targetPoint" />
            <Array as="points">
              <mxPoint x="852" y="516" />
              <mxPoint x="804" y="528" />
            </Array>
          </mxGeometry>
        </mxCell>
        <mxCell id="an_xKArvUmKsYVzUiVtq-169" value="1" style="text;html=1;align=center;verticalAlign=middle;resizable=0;points=[];autosize=1;strokeColor=none;fillColor=none;" parent="1" vertex="1">
          <mxGeometry x="744" y="456" width="36" height="24" as="geometry" />
        </mxCell>
        <mxCell id="an_xKArvUmKsYVzUiVtq-170" value="N" style="text;html=1;align=center;verticalAlign=middle;resizable=0;points=[];autosize=1;strokeColor=none;fillColor=none;" parent="1" vertex="1">
          <mxGeometry x="1080" y="588" width="36" height="24" as="geometry" />
        </mxCell>
        <mxCell id="an_xKArvUmKsYVzUiVtq-172" value="Sucursal" style="whiteSpace=wrap;html=1;align=center;" parent="1" vertex="1">
          <mxGeometry x="348" y="984" width="120" height="72" as="geometry" />
        </mxCell>
        <mxCell id="an_xKArvUmKsYVzUiVtq-174" value="ID" style="ellipse;whiteSpace=wrap;html=1;align=center;fontStyle=4;" parent="1" vertex="1">
          <mxGeometry x="132" y="924" width="100" height="40" as="geometry" />
        </mxCell>
        <mxCell id="an_xKArvUmKsYVzUiVtq-176" value="Localidad_Ori" style="ellipse;whiteSpace=wrap;html=1;align=center;" parent="1" vertex="1">
          <mxGeometry x="120" y="984" width="100" height="40" as="geometry" />
        </mxCell>
        <mxCell id="an_xKArvUmKsYVzUiVtq-177" value="Direccion" style="ellipse;whiteSpace=wrap;html=1;align=center;" parent="1" vertex="1">
          <mxGeometry x="204" y="1104" width="100" height="40" as="geometry" />
        </mxCell>
        <mxCell id="an_xKArvUmKsYVzUiVtq-178" value="Horario" style="ellipse;whiteSpace=wrap;html=1;align=center;" parent="1" vertex="1">
          <mxGeometry x="504" y="1104" width="100" height="40" as="geometry" />
        </mxCell>
        <mxCell id="an_xKArvUmKsYVzUiVtq-179" value="Telefono" style="ellipse;whiteSpace=wrap;html=1;align=center;" parent="1" vertex="1">
          <mxGeometry x="348" y="1128" width="100" height="40" as="geometry" />
        </mxCell>
        <mxCell id="an_xKArvUmKsYVzUiVtq-180" value="" style="endArrow=none;html=1;rounded=0;entryX=0;entryY=0.25;entryDx=0;entryDy=0;exitX=0.96;exitY=0.725;exitDx=0;exitDy=0;exitPerimeter=0;" parent="1" source="an_xKArvUmKsYVzUiVtq-174" target="an_xKArvUmKsYVzUiVtq-172" edge="1">
          <mxGeometry width="50" height="50" relative="1" as="geometry">
            <mxPoint x="276" y="998" as="sourcePoint" />
            <mxPoint x="326" y="948" as="targetPoint" />
          </mxGeometry>
        </mxCell>
        <mxCell id="an_xKArvUmKsYVzUiVtq-181" value="" style="endArrow=none;html=1;rounded=0;entryX=0;entryY=0.5;entryDx=0;entryDy=0;" parent="1" source="an_xKArvUmKsYVzUiVtq-176" target="an_xKArvUmKsYVzUiVtq-172" edge="1">
          <mxGeometry width="50" height="50" relative="1" as="geometry">
            <mxPoint x="244" y="1040" as="sourcePoint" />
            <mxPoint x="302" y="1056" as="targetPoint" />
          </mxGeometry>
        </mxCell>
        <mxCell id="an_xKArvUmKsYVzUiVtq-182" value="" style="endArrow=none;html=1;rounded=0;entryX=-0.025;entryY=0.667;entryDx=0;entryDy=0;entryPerimeter=0;" parent="1" source="an_xKArvUmKsYVzUiVtq-177" target="an_xKArvUmKsYVzUiVtq-172" edge="1">
          <mxGeometry width="50" height="50" relative="1" as="geometry">
            <mxPoint x="276" y="1094" as="sourcePoint" />
            <mxPoint x="326" y="1044" as="targetPoint" />
          </mxGeometry>
        </mxCell>
        <mxCell id="an_xKArvUmKsYVzUiVtq-183" value="" style="endArrow=none;html=1;rounded=0;entryX=0.375;entryY=1.014;entryDx=0;entryDy=0;entryPerimeter=0;exitX=0.5;exitY=0;exitDx=0;exitDy=0;" parent="1" source="an_xKArvUmKsYVzUiVtq-179" target="an_xKArvUmKsYVzUiVtq-172" edge="1">
          <mxGeometry width="50" height="50" relative="1" as="geometry">
            <mxPoint x="398" y="1116" as="sourcePoint" />
            <mxPoint x="482" y="1092" as="targetPoint" />
          </mxGeometry>
        </mxCell>
        <mxCell id="an_xKArvUmKsYVzUiVtq-184" value="" style="endArrow=none;html=1;rounded=0;exitX=0.908;exitY=1.028;exitDx=0;exitDy=0;exitPerimeter=0;entryX=0.5;entryY=0;entryDx=0;entryDy=0;" parent="1" source="an_xKArvUmKsYVzUiVtq-172" target="an_xKArvUmKsYVzUiVtq-178" edge="1">
          <mxGeometry width="50" height="50" relative="1" as="geometry">
            <mxPoint x="504" y="1094" as="sourcePoint" />
            <mxPoint x="516" y="1116" as="targetPoint" />
          </mxGeometry>
        </mxCell>
        <mxCell id="an_xKArvUmKsYVzUiVtq-188" value="1" style="text;html=1;align=center;verticalAlign=middle;resizable=0;points=[];autosize=1;strokeColor=none;fillColor=none;" parent="1" vertex="1">
          <mxGeometry x="384" y="924" width="36" height="24" as="geometry" />
        </mxCell>
        <mxCell id="an_xKArvUmKsYVzUiVtq-189" value="N" style="text;html=1;align=center;verticalAlign=middle;resizable=0;points=[];autosize=1;strokeColor=none;fillColor=none;" parent="1" vertex="1">
          <mxGeometry x="396" y="804" width="36" height="24" as="geometry" />
        </mxCell>
        <mxCell id="an_xKArvUmKsYVzUiVtq-207" value="Genera" style="shape=rhombus;perimeter=rhombusPerimeter;whiteSpace=wrap;html=1;align=center;" parent="1" vertex="1">
          <mxGeometry x="1128" y="156" width="72" height="60" as="geometry" />
        </mxCell>
        <mxCell id="an_xKArvUmKsYVzUiVtq-209" value="" style="endArrow=none;html=1;rounded=0;entryX=0;entryY=0.5;entryDx=0;entryDy=0;exitX=1;exitY=0.75;exitDx=0;exitDy=0;" parent="1" source="an_xKArvUmKsYVzUiVtq-6" target="an_xKArvUmKsYVzUiVtq-207" edge="1">
          <mxGeometry width="50" height="50" relative="1" as="geometry">
            <mxPoint x="660" y="300" as="sourcePoint" />
            <mxPoint x="840" y="240" as="targetPoint" />
          </mxGeometry>
        </mxCell>
        <mxCell id="an_xKArvUmKsYVzUiVtq-210" value="" style="endArrow=none;html=1;rounded=0;exitX=1;exitY=0.5;exitDx=0;exitDy=0;entryX=0;entryY=1;entryDx=0;entryDy=0;" parent="1" source="an_xKArvUmKsYVzUiVtq-6" target="an_xKArvUmKsYVzUiVtq-26" edge="1">
          <mxGeometry width="50" height="50" relative="1" as="geometry">
            <mxPoint x="720" y="242" as="sourcePoint" />
            <mxPoint x="770" y="192" as="targetPoint" />
          </mxGeometry>
        </mxCell>
        <mxCell id="an_xKArvUmKsYVzUiVtq-211" value="1" style="text;html=1;align=center;verticalAlign=middle;resizable=0;points=[];autosize=1;strokeColor=none;fillColor=none;" parent="1" vertex="1">
          <mxGeometry x="746" y="241" width="36" height="24" as="geometry" />
        </mxCell>
        <mxCell id="an_xKArvUmKsYVzUiVtq-213" value="" style="endArrow=none;html=1;rounded=0;entryX=0;entryY=1;entryDx=0;entryDy=0;exitX=0.924;exitY=0.045;exitDx=0;exitDy=0;exitPerimeter=0;" parent="1" source="an_xKArvUmKsYVzUiVtq-6" target="an_xKArvUmKsYVzUiVtq-20" edge="1">
          <mxGeometry width="50" height="50" relative="1" as="geometry">
            <mxPoint x="636" y="218" as="sourcePoint" />
            <mxPoint x="686" y="168" as="targetPoint" />
          </mxGeometry>
        </mxCell>
        <mxCell id="an_xKArvUmKsYVzUiVtq-215" value="Tipo" style="ellipse;whiteSpace=wrap;html=1;align=center;" parent="1" vertex="1">
          <mxGeometry x="276" y="336" width="100" height="40" as="geometry" />
        </mxCell>
        <mxCell id="an_xKArvUmKsYVzUiVtq-220" value="Monto" style="ellipse;whiteSpace=wrap;html=1;align=center;" parent="1" vertex="1">
          <mxGeometry x="360" y="396" width="100" height="40" as="geometry" />
        </mxCell>
        <mxCell id="an_xKArvUmKsYVzUiVtq-225" value="" style="endArrow=none;html=1;rounded=0;entryX=0;entryY=0.5;entryDx=0;entryDy=0;exitX=1;exitY=0;exitDx=0;exitDy=0;" parent="1" target="an_xKArvUmKsYVzUiVtq-27" edge="1">
          <mxGeometry width="50" height="50" relative="1" as="geometry">
            <mxPoint x="1300.0000000000005" y="468" as="sourcePoint" />
            <mxPoint x="1391.1999999999998" y="408" as="targetPoint" />
          </mxGeometry>
        </mxCell>
        <mxCell id="an_xKArvUmKsYVzUiVtq-227" value="" style="endArrow=none;html=1;rounded=0;entryX=0;entryY=0.5;entryDx=0;entryDy=0;exitX=1;exitY=1;exitDx=0;exitDy=0;" parent="1" source="an_xKArvUmKsYVzUiVtq-67" target="an_xKArvUmKsYVzUiVtq-73" edge="1">
          <mxGeometry width="50" height="50" relative="1" as="geometry">
            <mxPoint x="1332" y="528.48" as="sourcePoint" />
            <mxPoint x="1382" y="478.48" as="targetPoint" />
          </mxGeometry>
        </mxCell>
        <mxCell id="an_xKArvUmKsYVzUiVtq-229" value="" style="endArrow=none;html=1;rounded=0;entryX=0;entryY=0.5;entryDx=0;entryDy=0;exitX=1;exitY=0;exitDx=0;exitDy=0;" parent="1" source="i3SQ65WdC5mPxwsUUdCW-1" target="an_xKArvUmKsYVzUiVtq-155" edge="1">
          <mxGeometry width="50" height="50" relative="1" as="geometry">
            <mxPoint x="1332" y="648" as="sourcePoint" />
            <mxPoint x="1394" y="588" as="targetPoint" />
          </mxGeometry>
        </mxCell>
        <mxCell id="an_xKArvUmKsYVzUiVtq-230" value="Subtotal" style="ellipse;whiteSpace=wrap;html=1;align=center;" parent="1" vertex="1">
          <mxGeometry x="1164" y="552" width="100" height="40" as="geometry" />
        </mxCell>
        <mxCell id="an_xKArvUmKsYVzUiVtq-231" value="" style="endArrow=none;html=1;rounded=0;entryX=0.554;entryY=0.974;entryDx=0;entryDy=0;entryPerimeter=0;exitX=0.25;exitY=0;exitDx=0;exitDy=0;" parent="1" source="i3SQ65WdC5mPxwsUUdCW-1" target="an_xKArvUmKsYVzUiVtq-230" edge="1">
          <mxGeometry width="50" height="50" relative="1" as="geometry">
            <mxPoint x="1216.944" y="644.9760000000001" as="sourcePoint" />
            <mxPoint x="1214" y="576" as="targetPoint" />
          </mxGeometry>
        </mxCell>
        <mxCell id="an_xKArvUmKsYVzUiVtq-232" value="PrecioUnitario" style="ellipse;whiteSpace=wrap;html=1;align=center;" parent="1" vertex="1">
          <mxGeometry x="1284" y="528" width="100" height="40" as="geometry" />
        </mxCell>
        <mxCell id="an_xKArvUmKsYVzUiVtq-233" value="" style="endArrow=none;html=1;rounded=0;entryX=0.5;entryY=1;entryDx=0;entryDy=0;exitX=0.75;exitY=0;exitDx=0;exitDy=0;" parent="1" source="i3SQ65WdC5mPxwsUUdCW-1" target="an_xKArvUmKsYVzUiVtq-232" edge="1">
          <mxGeometry width="50" height="50" relative="1" as="geometry">
            <mxPoint x="1296" y="648" as="sourcePoint" />
            <mxPoint x="1346" y="588" as="targetPoint" />
          </mxGeometry>
        </mxCell>
        <mxCell id="an_xKArvUmKsYVzUiVtq-234" value="Trabaja_En" style="shape=rhombus;perimeter=rhombusPerimeter;whiteSpace=wrap;html=1;align=center;" parent="1" vertex="1">
          <mxGeometry x="396" y="852" width="84" height="60" as="geometry" />
        </mxCell>
        <mxCell id="an_xKArvUmKsYVzUiVtq-235" value="" style="endArrow=none;html=1;rounded=0;entryX=0.4;entryY=0.96;entryDx=0;entryDy=0;entryPerimeter=0;exitX=0.5;exitY=0;exitDx=0;exitDy=0;" parent="1" source="an_xKArvUmKsYVzUiVtq-234" target="an_xKArvUmKsYVzUiVtq-82" edge="1">
          <mxGeometry width="50" height="50" relative="1" as="geometry">
            <mxPoint x="432" y="830" as="sourcePoint" />
            <mxPoint x="482" y="780" as="targetPoint" />
          </mxGeometry>
        </mxCell>
        <mxCell id="an_xKArvUmKsYVzUiVtq-236" value="" style="endArrow=none;html=1;rounded=0;entryX=0.5;entryY=1;entryDx=0;entryDy=0;exitX=0.633;exitY=-0.014;exitDx=0;exitDy=0;exitPerimeter=0;" parent="1" source="an_xKArvUmKsYVzUiVtq-172" target="an_xKArvUmKsYVzUiVtq-234" edge="1">
          <mxGeometry width="50" height="50" relative="1" as="geometry">
            <mxPoint x="420" y="972" as="sourcePoint" />
            <mxPoint x="470" y="924" as="targetPoint" />
          </mxGeometry>
        </mxCell>
        <mxCell id="an_xKArvUmKsYVzUiVtq-240" value="" style="endArrow=none;html=1;rounded=0;entryX=0.709;entryY=0.923;entryDx=0;entryDy=0;entryPerimeter=0;exitX=0.5;exitY=0;exitDx=0;exitDy=0;" parent="1" source="an_xKArvUmKsYVzUiVtq-158" target="i3SQ65WdC5mPxwsUUdCW-1" edge="1">
          <mxGeometry width="50" height="50" relative="1" as="geometry">
            <mxPoint x="1260" y="794" as="sourcePoint" />
            <mxPoint x="1285.056" y="722.0159999999996" as="targetPoint" />
          </mxGeometry>
        </mxCell>
        <mxCell id="an_xKArvUmKsYVzUiVtq-241" value="" style="endArrow=none;html=1;rounded=0;entryX=0;entryY=0.5;entryDx=0;entryDy=0;exitX=1;exitY=0.75;exitDx=0;exitDy=0;" parent="1" source="i3SQ65WdC5mPxwsUUdCW-1" target="an_xKArvUmKsYVzUiVtq-152" edge="1">
          <mxGeometry width="50" height="50" relative="1" as="geometry">
            <mxPoint x="1332" y="698" as="sourcePoint" />
            <mxPoint x="1382" y="648" as="targetPoint" />
          </mxGeometry>
        </mxCell>
        <mxCell id="an_xKArvUmKsYVzUiVtq-245" value="" style="endArrow=none;html=1;rounded=0;entryX=0;entryY=0.5;entryDx=0;entryDy=0;exitX=0.993;exitY=0.65;exitDx=0;exitDy=0;exitPerimeter=0;" parent="1" source="an_xKArvUmKsYVzUiVtq-82" target="an_xKArvUmKsYVzUiVtq-105" edge="1">
          <mxGeometry width="50" height="50" relative="1" as="geometry">
            <mxPoint x="624" y="710" as="sourcePoint" />
            <mxPoint x="674" y="660" as="targetPoint" />
          </mxGeometry>
        </mxCell>
        <mxCell id="an_xKArvUmKsYVzUiVtq-246" value="" style="endArrow=none;html=1;rounded=0;entryX=0;entryY=0.3;entryDx=0;entryDy=0;entryPerimeter=0;exitX=1;exitY=1;exitDx=0;exitDy=0;" parent="1" source="an_xKArvUmKsYVzUiVtq-82" target="an_xKArvUmKsYVzUiVtq-102" edge="1">
          <mxGeometry width="50" height="50" relative="1" as="geometry">
            <mxPoint x="588" y="782" as="sourcePoint" />
            <mxPoint x="638" y="732" as="targetPoint" />
          </mxGeometry>
        </mxCell>
        <mxCell id="an_xKArvUmKsYVzUiVtq-247" value="" style="endArrow=none;html=1;rounded=0;entryX=0;entryY=0.3;entryDx=0;entryDy=0;entryPerimeter=0;exitX=0.887;exitY=0.98;exitDx=0;exitDy=0;exitPerimeter=0;" parent="1" source="an_xKArvUmKsYVzUiVtq-82" target="an_xKArvUmKsYVzUiVtq-93" edge="1">
          <mxGeometry width="50" height="50" relative="1" as="geometry">
            <mxPoint x="528" y="806" as="sourcePoint" />
            <mxPoint x="578" y="756" as="targetPoint" />
          </mxGeometry>
        </mxCell>
        <mxCell id="an_xKArvUmKsYVzUiVtq-248" value="" style="endArrow=none;html=1;rounded=0;entryX=0.75;entryY=1;entryDx=0;entryDy=0;exitX=0.25;exitY=0;exitDx=0;exitDy=0;exitPerimeter=0;" parent="1" source="an_xKArvUmKsYVzUiVtq-94" target="an_xKArvUmKsYVzUiVtq-82" edge="1">
          <mxGeometry width="50" height="50" relative="1" as="geometry">
            <mxPoint x="468" y="818" as="sourcePoint" />
            <mxPoint x="518" y="768" as="targetPoint" />
          </mxGeometry>
        </mxCell>
        <mxCell id="an_xKArvUmKsYVzUiVtq-249" value="" style="endArrow=none;html=1;rounded=0;entryX=0.173;entryY=1;entryDx=0;entryDy=0;entryPerimeter=0;exitX=1;exitY=0;exitDx=0;exitDy=0;" parent="1" source="an_xKArvUmKsYVzUiVtq-101" target="an_xKArvUmKsYVzUiVtq-82" edge="1">
          <mxGeometry width="50" height="50" relative="1" as="geometry">
            <mxPoint x="360" y="818" as="sourcePoint" />
            <mxPoint x="410" y="768" as="targetPoint" />
          </mxGeometry>
        </mxCell>
        <mxCell id="an_xKArvUmKsYVzUiVtq-250" value="" style="endArrow=none;html=1;rounded=0;entryX=-0.013;entryY=0.94;entryDx=0;entryDy=0;entryPerimeter=0;exitX=1;exitY=0;exitDx=0;exitDy=0;" parent="1" source="an_xKArvUmKsYVzUiVtq-95" target="an_xKArvUmKsYVzUiVtq-82" edge="1">
          <mxGeometry width="50" height="50" relative="1" as="geometry">
            <mxPoint x="324" y="794" as="sourcePoint" />
            <mxPoint x="374" y="744" as="targetPoint" />
          </mxGeometry>
        </mxCell>
        <mxCell id="an_xKArvUmKsYVzUiVtq-251" value="" style="endArrow=none;html=1;rounded=0;entryX=0;entryY=0.75;entryDx=0;entryDy=0;exitX=1;exitY=0.5;exitDx=0;exitDy=0;" parent="1" source="an_xKArvUmKsYVzUiVtq-96" target="an_xKArvUmKsYVzUiVtq-82" edge="1">
          <mxGeometry width="50" height="50" relative="1" as="geometry">
            <mxPoint x="264" y="758" as="sourcePoint" />
            <mxPoint x="314" y="708" as="targetPoint" />
          </mxGeometry>
        </mxCell>
        <mxCell id="an_xKArvUmKsYVzUiVtq-252" value="" style="endArrow=none;html=1;rounded=0;entryX=0;entryY=0.6;entryDx=0;entryDy=0;entryPerimeter=0;exitX=0.94;exitY=0.675;exitDx=0;exitDy=0;exitPerimeter=0;" parent="1" source="an_xKArvUmKsYVzUiVtq-97" target="an_xKArvUmKsYVzUiVtq-82" edge="1">
          <mxGeometry width="50" height="50" relative="1" as="geometry">
            <mxPoint x="264" y="710" as="sourcePoint" />
            <mxPoint x="314" y="660" as="targetPoint" />
          </mxGeometry>
        </mxCell>
        <mxCell id="an_xKArvUmKsYVzUiVtq-256" value="" style="endArrow=none;html=1;rounded=0;entryX=0;entryY=0.25;entryDx=0;entryDy=0;exitX=1;exitY=0.5;exitDx=0;exitDy=0;" parent="1" source="an_xKArvUmKsYVzUiVtq-98" target="an_xKArvUmKsYVzUiVtq-82" edge="1">
          <mxGeometry width="50" height="50" relative="1" as="geometry">
            <mxPoint x="312" y="626" as="sourcePoint" />
            <mxPoint x="362" y="576" as="targetPoint" />
          </mxGeometry>
        </mxCell>
        <mxCell id="an_xKArvUmKsYVzUiVtq-258" value="" style="endArrow=none;html=1;rounded=0;entryX=0.087;entryY=0.99;entryDx=0;entryDy=0;entryPerimeter=0;exitX=0.704;exitY=0.058;exitDx=0;exitDy=0;exitPerimeter=0;" parent="1" source="an_xKArvUmKsYVzUiVtq-17" target="an_xKArvUmKsYVzUiVtq-125" edge="1">
          <mxGeometry width="50" height="50" relative="1" as="geometry">
            <mxPoint x="1056" y="1070" as="sourcePoint" />
            <mxPoint x="1106" y="1020" as="targetPoint" />
          </mxGeometry>
        </mxCell>
        <mxCell id="an_xKArvUmKsYVzUiVtq-259" value="" style="endArrow=none;html=1;rounded=0;entryX=0;entryY=0.75;entryDx=0;entryDy=0;exitX=1;exitY=0.5;exitDx=0;exitDy=0;" parent="1" source="an_xKArvUmKsYVzUiVtq-134" target="an_xKArvUmKsYVzUiVtq-125" edge="1">
          <mxGeometry width="50" height="50" relative="1" as="geometry">
            <mxPoint x="1020" y="1034" as="sourcePoint" />
            <mxPoint x="1070" y="984" as="targetPoint" />
          </mxGeometry>
        </mxCell>
        <mxCell id="an_xKArvUmKsYVzUiVtq-260" value="" style="endArrow=none;html=1;rounded=0;entryX=0;entryY=0.5;entryDx=0;entryDy=0;exitX=1;exitY=0.5;exitDx=0;exitDy=0;" parent="1" source="an_xKArvUmKsYVzUiVtq-149" target="an_xKArvUmKsYVzUiVtq-125" edge="1">
          <mxGeometry width="50" height="50" relative="1" as="geometry">
            <mxPoint x="984" y="986" as="sourcePoint" />
            <mxPoint x="1034" y="936" as="targetPoint" />
          </mxGeometry>
        </mxCell>
        <mxCell id="an_xKArvUmKsYVzUiVtq-261" value="" style="endArrow=none;html=1;rounded=0;entryX=0.427;entryY=1;entryDx=0;entryDy=0;entryPerimeter=0;exitX=0.42;exitY=-0.025;exitDx=0;exitDy=0;exitPerimeter=0;" parent="1" source="an_xKArvUmKsYVzUiVtq-137" target="an_xKArvUmKsYVzUiVtq-125" edge="1">
          <mxGeometry width="50" height="50" relative="1" as="geometry">
            <mxPoint x="1140" y="1082" as="sourcePoint" />
            <mxPoint x="1190" y="1032" as="targetPoint" />
          </mxGeometry>
        </mxCell>
        <mxCell id="an_xKArvUmKsYVzUiVtq-262" value="" style="endArrow=none;html=1;rounded=0;entryX=0.4;entryY=0.025;entryDx=0;entryDy=0;entryPerimeter=0;exitX=0.75;exitY=1;exitDx=0;exitDy=0;" parent="1" source="an_xKArvUmKsYVzUiVtq-125" target="an_xKArvUmKsYVzUiVtq-142" edge="1">
          <mxGeometry width="50" height="50" relative="1" as="geometry">
            <mxPoint x="1200" y="1070" as="sourcePoint" />
            <mxPoint x="1250" y="1020" as="targetPoint" />
          </mxGeometry>
        </mxCell>
        <mxCell id="an_xKArvUmKsYVzUiVtq-263" value="" style="endArrow=none;html=1;rounded=0;entryX=0.05;entryY=0.175;entryDx=0;entryDy=0;entryPerimeter=0;exitX=0.987;exitY=0.91;exitDx=0;exitDy=0;exitPerimeter=0;" parent="1" source="an_xKArvUmKsYVzUiVtq-125" target="an_xKArvUmKsYVzUiVtq-139" edge="1">
          <mxGeometry width="50" height="50" relative="1" as="geometry">
            <mxPoint x="1260" y="1034" as="sourcePoint" />
            <mxPoint x="1310" y="984" as="targetPoint" />
          </mxGeometry>
        </mxCell>
        <mxCell id="an_xKArvUmKsYVzUiVtq-264" value="" style="endArrow=none;html=1;rounded=0;exitX=1;exitY=0.75;exitDx=0;exitDy=0;" parent="1" source="an_xKArvUmKsYVzUiVtq-125" target="an_xKArvUmKsYVzUiVtq-136" edge="1">
          <mxGeometry width="50" height="50" relative="1" as="geometry">
            <mxPoint x="1296" y="1010" as="sourcePoint" />
            <mxPoint x="1346" y="960" as="targetPoint" />
          </mxGeometry>
        </mxCell>
        <mxCell id="an_xKArvUmKsYVzUiVtq-265" value="" style="endArrow=none;html=1;rounded=0;entryX=0;entryY=0.5;entryDx=0;entryDy=0;exitX=1.04;exitY=0.36;exitDx=0;exitDy=0;exitPerimeter=0;" parent="1" source="an_xKArvUmKsYVzUiVtq-125" target="an_xKArvUmKsYVzUiVtq-129" edge="1">
          <mxGeometry width="50" height="50" relative="1" as="geometry">
            <mxPoint x="1284" y="962" as="sourcePoint" />
            <mxPoint x="1334" y="912" as="targetPoint" />
          </mxGeometry>
        </mxCell>
        <mxCell id="an_xKArvUmKsYVzUiVtq-266" value="" style="endArrow=none;html=1;rounded=0;entryX=0.5;entryY=1;entryDx=0;entryDy=0;exitX=0.25;exitY=0;exitDx=0;exitDy=0;" parent="1" source="an_xKArvUmKsYVzUiVtq-123" target="an_xKArvUmKsYVzUiVtq-100" edge="1">
          <mxGeometry width="50" height="50" relative="1" as="geometry">
            <mxPoint x="1668" y="830" as="sourcePoint" />
            <mxPoint x="1718" y="780" as="targetPoint" />
          </mxGeometry>
        </mxCell>
        <mxCell id="an_xKArvUmKsYVzUiVtq-267" value="" style="endArrow=none;html=1;rounded=0;entryX=0.36;entryY=1;entryDx=0;entryDy=0;entryPerimeter=0;exitX=0.633;exitY=-0.03;exitDx=0;exitDy=0;exitPerimeter=0;" parent="1" source="an_xKArvUmKsYVzUiVtq-123" target="an_xKArvUmKsYVzUiVtq-117" edge="1">
          <mxGeometry width="50" height="50" relative="1" as="geometry">
            <mxPoint x="1764" y="842" as="sourcePoint" />
            <mxPoint x="1814" y="792" as="targetPoint" />
          </mxGeometry>
        </mxCell>
        <mxCell id="an_xKArvUmKsYVzUiVtq-268" value="" style="endArrow=none;html=1;rounded=0;entryX=0.09;entryY=0.775;entryDx=0;entryDy=0;entryPerimeter=0;exitX=1;exitY=0;exitDx=0;exitDy=0;" parent="1" source="an_xKArvUmKsYVzUiVtq-123" target="an_xKArvUmKsYVzUiVtq-120" edge="1">
          <mxGeometry width="50" height="50" relative="1" as="geometry">
            <mxPoint x="1848" y="866" as="sourcePoint" />
            <mxPoint x="1898" y="816" as="targetPoint" />
          </mxGeometry>
        </mxCell>
        <mxCell id="an_xKArvUmKsYVzUiVtq-269" value="" style="endArrow=none;html=1;rounded=0;entryX=0.8;entryY=1.025;entryDx=0;entryDy=0;entryPerimeter=0;exitX=0;exitY=0;exitDx=0;exitDy=0;" parent="1" source="an_xKArvUmKsYVzUiVtq-11" target="an_xKArvUmKsYVzUiVtq-55" edge="1">
          <mxGeometry width="50" height="50" relative="1" as="geometry">
            <mxPoint x="1524" y="326" as="sourcePoint" />
            <mxPoint x="1574" y="276" as="targetPoint" />
          </mxGeometry>
        </mxCell>
        <mxCell id="an_xKArvUmKsYVzUiVtq-270" value="" style="endArrow=none;html=1;rounded=0;entryX=0.5;entryY=1;entryDx=0;entryDy=0;exitX=0.35;exitY=-0.075;exitDx=0;exitDy=0;exitPerimeter=0;" parent="1" source="an_xKArvUmKsYVzUiVtq-11" target="an_xKArvUmKsYVzUiVtq-13" edge="1">
          <mxGeometry width="50" height="50" relative="1" as="geometry">
            <mxPoint x="1572" y="302" as="sourcePoint" />
            <mxPoint x="1622" y="252" as="targetPoint" />
          </mxGeometry>
        </mxCell>
        <mxCell id="an_xKArvUmKsYVzUiVtq-271" value="" style="endArrow=none;html=1;rounded=0;entryX=0.37;entryY=0.975;entryDx=0;entryDy=0;entryPerimeter=0;exitX=1;exitY=0;exitDx=0;exitDy=0;" parent="1" source="an_xKArvUmKsYVzUiVtq-11" target="an_xKArvUmKsYVzUiVtq-51" edge="1">
          <mxGeometry width="50" height="50" relative="1" as="geometry">
            <mxPoint x="1668" y="350" as="sourcePoint" />
            <mxPoint x="1718" y="300" as="targetPoint" />
          </mxGeometry>
        </mxCell>
        <mxCell id="an_xKArvUmKsYVzUiVtq-272" value="" style="endArrow=none;html=1;rounded=0;entryX=0.03;entryY=0.675;entryDx=0;entryDy=0;entryPerimeter=0;exitX=1;exitY=0.5;exitDx=0;exitDy=0;" parent="1" source="an_xKArvUmKsYVzUiVtq-11" target="an_xKArvUmKsYVzUiVtq-52" edge="1">
          <mxGeometry width="50" height="50" relative="1" as="geometry">
            <mxPoint x="1680" y="410" as="sourcePoint" />
            <mxPoint x="1730" y="360" as="targetPoint" />
          </mxGeometry>
        </mxCell>
        <mxCell id="an_xKArvUmKsYVzUiVtq-273" value="" style="endArrow=none;html=1;rounded=0;exitX=1;exitY=0.886;exitDx=0;exitDy=0;exitPerimeter=0;" parent="1" source="an_xKArvUmKsYVzUiVtq-6" target="an_xKArvUmKsYVzUiVtq-40" edge="1">
          <mxGeometry width="50" height="50" relative="1" as="geometry">
            <mxPoint x="684" y="350" as="sourcePoint" />
            <mxPoint x="734" y="300" as="targetPoint" />
          </mxGeometry>
        </mxCell>
        <mxCell id="an_xKArvUmKsYVzUiVtq-274" value="" style="endArrow=none;html=1;rounded=0;entryX=0;entryY=0.5;entryDx=0;entryDy=0;exitX=0.917;exitY=0.986;exitDx=0;exitDy=0;exitPerimeter=0;" parent="1" source="an_xKArvUmKsYVzUiVtq-6" target="an_xKArvUmKsYVzUiVtq-42" edge="1">
          <mxGeometry width="50" height="50" relative="1" as="geometry">
            <mxPoint x="756" y="398" as="sourcePoint" />
            <mxPoint x="806" y="348" as="targetPoint" />
          </mxGeometry>
        </mxCell>
        <mxCell id="an_xKArvUmKsYVzUiVtq-276" value="" style="endArrow=none;html=1;rounded=0;entryX=0.133;entryY=0;entryDx=0;entryDy=0;entryPerimeter=0;exitX=0.76;exitY=0.975;exitDx=0;exitDy=0;exitPerimeter=0;" parent="1" source="an_xKArvUmKsYVzUiVtq-12" target="an_xKArvUmKsYVzUiVtq-6" edge="1">
          <mxGeometry width="50" height="50" relative="1" as="geometry">
            <mxPoint x="444" y="218" as="sourcePoint" />
            <mxPoint x="494" y="168" as="targetPoint" />
          </mxGeometry>
        </mxCell>
        <mxCell id="an_xKArvUmKsYVzUiVtq-278" value="" style="endArrow=none;html=1;rounded=0;entryX=0;entryY=0.5;entryDx=0;entryDy=0;exitX=1;exitY=0.5;exitDx=0;exitDy=0;" parent="1" source="an_xKArvUmKsYVzUiVtq-10" target="an_xKArvUmKsYVzUiVtq-6" edge="1">
          <mxGeometry width="50" height="50" relative="1" as="geometry">
            <mxPoint x="384" y="290" as="sourcePoint" />
            <mxPoint x="434" y="240" as="targetPoint" />
          </mxGeometry>
        </mxCell>
        <mxCell id="an_xKArvUmKsYVzUiVtq-282" value="" style="endArrow=none;html=1;rounded=0;entryX=0.642;entryY=0.971;entryDx=0;entryDy=0;entryPerimeter=0;exitX=0.5;exitY=0;exitDx=0;exitDy=0;" parent="1" source="an_xKArvUmKsYVzUiVtq-43" target="an_xKArvUmKsYVzUiVtq-6" edge="1">
          <mxGeometry width="50" height="50" relative="1" as="geometry">
            <mxPoint x="624" y="446" as="sourcePoint" />
            <mxPoint x="674" y="396" as="targetPoint" />
          </mxGeometry>
        </mxCell>
        <mxCell id="an_xKArvUmKsYVzUiVtq-287" value="Id" style="ellipse;whiteSpace=wrap;html=1;align=center;fontStyle=4;" parent="1" vertex="1">
          <mxGeometry x="1812" y="72" width="84" height="48" as="geometry" />
        </mxCell>
        <mxCell id="an_xKArvUmKsYVzUiVtq-288" value="" style="endArrow=none;html=1;rounded=0;entryX=0;entryY=1;entryDx=0;entryDy=0;exitX=1;exitY=0.5;exitDx=0;exitDy=0;" parent="1" source="i3SQ65WdC5mPxwsUUdCW-32" target="an_xKArvUmKsYVzUiVtq-287" edge="1">
          <mxGeometry width="50" height="50" relative="1" as="geometry">
            <mxPoint x="1766.1599999999999" y="121.34400000000005" as="sourcePoint" />
            <mxPoint x="2028.00000000001" y="-48" as="targetPoint" />
          </mxGeometry>
        </mxCell>
        <mxCell id="an_xKArvUmKsYVzUiVtq-289" style="edgeStyle=none;rounded=0;orthogonalLoop=1;jettySize=auto;html=1;entryX=0;entryY=0.5;entryDx=0;entryDy=0;" parent="1" edge="1">
          <mxGeometry relative="1" as="geometry">
            <mxPoint x="2028.00000000001" y="-48" as="sourcePoint" />
            <mxPoint x="2028.00000000001" y="-48" as="targetPoint" />
          </mxGeometry>
        </mxCell>
        <mxCell id="an_xKArvUmKsYVzUiVtq-296" value="" style="endArrow=none;html=1;rounded=0;entryX=0.911;entryY=0.965;entryDx=0;entryDy=0;entryPerimeter=0;exitX=0.594;exitY=-0.046;exitDx=0;exitDy=0;exitPerimeter=0;" parent="1" source="an_xKArvUmKsYVzUiVtq-297" target="i3SQ65WdC5mPxwsUUdCW-32" edge="1">
          <mxGeometry width="50" height="50" relative="1" as="geometry">
            <mxPoint x="1944" y="120" as="sourcePoint" />
            <mxPoint x="1751.4720000000002" y="161.34400000000005" as="targetPoint" />
          </mxGeometry>
        </mxCell>
        <mxCell id="an_xKArvUmKsYVzUiVtq-297" value="Fecha" style="ellipse;whiteSpace=wrap;html=1;align=center;" parent="1" vertex="1">
          <mxGeometry x="1848" y="156" width="100" height="40" as="geometry" />
        </mxCell>
        <mxCell id="an_xKArvUmKsYVzUiVtq-301" value="" style="endArrow=none;html=1;rounded=0;entryX=0.5;entryY=1;entryDx=0;entryDy=0;exitX=0.5;exitY=0;exitDx=0;exitDy=0;" parent="1" source="an_xKArvUmKsYVzUiVtq-302" target="i3SQ65WdC5mPxwsUUdCW-32" edge="1">
          <mxGeometry width="50" height="50" relative="1" as="geometry">
            <mxPoint x="1872" y="120" as="sourcePoint" />
            <mxPoint x="1692" y="160.00000000000045" as="targetPoint" />
          </mxGeometry>
        </mxCell>
        <mxCell id="an_xKArvUmKsYVzUiVtq-302" value="Monto" style="ellipse;whiteSpace=wrap;html=1;align=center;" parent="1" vertex="1">
          <mxGeometry x="1776" y="216" width="100" height="40" as="geometry" />
        </mxCell>
        <mxCell id="an_xKArvUmKsYVzUiVtq-304" value="" style="endArrow=none;html=1;rounded=0;entryX=0.046;entryY=0.859;entryDx=0;entryDy=0;exitX=1;exitY=0.5;exitDx=0;exitDy=0;entryPerimeter=0;" parent="1" source="an_xKArvUmKsYVzUiVtq-82" target="i3SQ65WdC5mPxwsUUdCW-40" edge="1">
          <mxGeometry width="50" height="50" relative="1" as="geometry">
            <mxPoint x="552" y="698" as="sourcePoint" />
            <mxPoint x="635.999999999995" y="656" as="targetPoint" />
          </mxGeometry>
        </mxCell>
        <mxCell id="an_xKArvUmKsYVzUiVtq-315" value="Baja" style="ellipse;whiteSpace=wrap;html=1;align=center;" parent="1" vertex="1">
          <mxGeometry x="1632" y="408" width="100" height="40" as="geometry" />
        </mxCell>
        <mxCell id="an_xKArvUmKsYVzUiVtq-316" value="" style="endArrow=none;html=1;rounded=0;entryX=0.049;entryY=0.249;entryDx=0;entryDy=0;entryPerimeter=0;exitX=0.668;exitY=0.901;exitDx=0;exitDy=0;exitPerimeter=0;" parent="1" source="an_xKArvUmKsYVzUiVtq-11" target="an_xKArvUmKsYVzUiVtq-315" edge="1">
          <mxGeometry width="50" height="50" relative="1" as="geometry">
            <mxPoint x="1572" y="434" as="sourcePoint" />
            <mxPoint x="1622" y="384" as="targetPoint" />
          </mxGeometry>
        </mxCell>
        <mxCell id="an_xKArvUmKsYVzUiVtq-317" value="Baja" style="ellipse;whiteSpace=wrap;html=1;align=center;" parent="1" vertex="1">
          <mxGeometry x="1272" y="396" width="100" height="40" as="geometry" />
        </mxCell>
        <mxCell id="an_xKArvUmKsYVzUiVtq-318" value="" style="endArrow=none;html=1;rounded=0;entryX=0.393;entryY=1.043;entryDx=0;entryDy=0;entryPerimeter=0;exitX=0.433;exitY=-0.004;exitDx=0;exitDy=0;exitPerimeter=0;" parent="1" source="an_xKArvUmKsYVzUiVtq-67" target="an_xKArvUmKsYVzUiVtq-317" edge="1">
          <mxGeometry width="50" height="50" relative="1" as="geometry">
            <mxPoint x="1212" y="470" as="sourcePoint" />
            <mxPoint x="1262" y="420" as="targetPoint" />
          </mxGeometry>
        </mxCell>
        <mxCell id="an_xKArvUmKsYVzUiVtq-319" value="Estado" style="ellipse;whiteSpace=wrap;html=1;align=center;" parent="1" vertex="1">
          <mxGeometry x="264" y="84" width="100" height="40" as="geometry" />
        </mxCell>
        <mxCell id="i3SQ65WdC5mPxwsUUdCW-1" value="Detalle_Venta" style="whiteSpace=wrap;html=1;align=center;" parent="1" vertex="1">
          <mxGeometry x="1200" y="660" width="120" height="52" as="geometry" />
        </mxCell>
        <mxCell id="i3SQ65WdC5mPxwsUUdCW-2" value="Registra" style="shape=rhombus;perimeter=rhombusPerimeter;whiteSpace=wrap;html=1;align=center;" parent="1" vertex="1">
          <mxGeometry x="912" y="540" width="120" height="60" as="geometry" />
        </mxCell>
        <mxCell id="i3SQ65WdC5mPxwsUUdCW-4" value="" style="endArrow=none;html=1;rounded=0;entryX=0;entryY=0.5;entryDx=0;entryDy=0;exitX=1;exitY=1;exitDx=0;exitDy=0;" parent="1" source="i3SQ65WdC5mPxwsUUdCW-2" target="i3SQ65WdC5mPxwsUUdCW-1" edge="1">
          <mxGeometry width="50" height="50" relative="1" as="geometry">
            <mxPoint x="1044" y="674" as="sourcePoint" />
            <mxPoint x="1094" y="624" as="targetPoint" />
          </mxGeometry>
        </mxCell>
        <mxCell id="i3SQ65WdC5mPxwsUUdCW-32" value="Nota_De_Credito" style="whiteSpace=wrap;html=1;align=center;" parent="1" vertex="1">
          <mxGeometry x="1608" y="72" width="144" height="64" as="geometry" />
        </mxCell>
        <mxCell id="i3SQ65WdC5mPxwsUUdCW-33" value="DNI" style="ellipse;whiteSpace=wrap;html=1;align=center;" parent="1" vertex="1">
          <mxGeometry x="1512" y="408" width="100" height="40" as="geometry" />
        </mxCell>
        <mxCell id="i3SQ65WdC5mPxwsUUdCW-34" value="" style="endArrow=none;html=1;rounded=0;entryX=0.25;entryY=1;entryDx=0;entryDy=0;exitX=0.6;exitY=0.001;exitDx=0;exitDy=0;exitPerimeter=0;" parent="1" source="i3SQ65WdC5mPxwsUUdCW-33" target="an_xKArvUmKsYVzUiVtq-11" edge="1">
          <mxGeometry width="50" height="50" relative="1" as="geometry">
            <mxPoint x="1524" y="410" as="sourcePoint" />
            <mxPoint x="1574" y="360" as="targetPoint" />
          </mxGeometry>
        </mxCell>
        <mxCell id="i3SQ65WdC5mPxwsUUdCW-36" value="NumeroFactura" style="ellipse;whiteSpace=wrap;html=1;align=center;" parent="1" vertex="1">
          <mxGeometry x="528" y="12" width="100" height="40" as="geometry" />
        </mxCell>
        <mxCell id="i3SQ65WdC5mPxwsUUdCW-37" style="edgeStyle=orthogonalEdgeStyle;rounded=0;orthogonalLoop=1;jettySize=auto;html=1;exitX=0.5;exitY=1;exitDx=0;exitDy=0;" parent="1" source="an_xKArvUmKsYVzUiVtq-176" target="an_xKArvUmKsYVzUiVtq-176" edge="1">
          <mxGeometry relative="1" as="geometry" />
        </mxCell>
        <mxCell id="i3SQ65WdC5mPxwsUUdCW-38" value="Localidad_Real" style="ellipse;whiteSpace=wrap;html=1;align=center;" parent="1" vertex="1">
          <mxGeometry x="120" y="1032" width="100" height="40" as="geometry" />
        </mxCell>
        <mxCell id="i3SQ65WdC5mPxwsUUdCW-39" value="" style="endArrow=none;html=1;rounded=0;entryX=0;entryY=0.5;entryDx=0;entryDy=0;exitX=1;exitY=0.5;exitDx=0;exitDy=0;" parent="1" source="i3SQ65WdC5mPxwsUUdCW-38" target="an_xKArvUmKsYVzUiVtq-172" edge="1">
          <mxGeometry width="50" height="50" relative="1" as="geometry">
            <mxPoint x="252" y="1070" as="sourcePoint" />
            <mxPoint x="302" y="1020" as="targetPoint" />
          </mxGeometry>
        </mxCell>
        <mxCell id="i3SQ65WdC5mPxwsUUdCW-40" value="Legajo" style="ellipse;whiteSpace=wrap;html=1;align=center;fontStyle=4;" parent="1" vertex="1">
          <mxGeometry x="648" y="612" width="100" height="40" as="geometry" />
        </mxCell>
        <mxCell id="i3SQ65WdC5mPxwsUUdCW-41" value="" style="endArrow=none;html=1;rounded=0;entryX=0.005;entryY=0.155;entryDx=0;entryDy=0;entryPerimeter=0;exitX=1;exitY=1;exitDx=0;exitDy=0;" parent="1" source="i3SQ65WdC5mPxwsUUdCW-42" target="an_xKArvUmKsYVzUiVtq-6" edge="1">
          <mxGeometry width="50" height="50" relative="1" as="geometry">
            <mxPoint x="396" y="242" as="sourcePoint" />
            <mxPoint x="446" y="192" as="targetPoint" />
          </mxGeometry>
        </mxCell>
        <mxCell id="i3SQ65WdC5mPxwsUUdCW-42" value="IdPago" style="ellipse;whiteSpace=wrap;html=1;align=center;" parent="1" vertex="1">
          <mxGeometry x="252" y="180" width="100" height="40" as="geometry" />
        </mxCell>
        <mxCell id="rn4Tuk3TMcYPcY3QAkJP-1" value="ID" style="ellipse;whiteSpace=wrap;html=1;align=center;fontStyle=4;" parent="1" vertex="1">
          <mxGeometry x="660" y="12" width="100" height="40" as="geometry" />
        </mxCell>
        <mxCell id="rn4Tuk3TMcYPcY3QAkJP-2" value="" style="endArrow=none;html=1;rounded=0;fontSize=12;startSize=8;endSize=8;curved=1;exitX=1;exitY=0.5;exitDx=0;exitDy=0;entryX=0;entryY=0.75;entryDx=0;entryDy=0;" parent="1" source="an_xKArvUmKsYVzUiVtq-207" target="i3SQ65WdC5mPxwsUUdCW-32" edge="1">
          <mxGeometry width="50" height="50" relative="1" as="geometry">
            <mxPoint x="1152" y="218" as="sourcePoint" />
            <mxPoint x="1202" y="168" as="targetPoint" />
          </mxGeometry>
        </mxCell>
        <mxCell id="rn4Tuk3TMcYPcY3QAkJP-4" value="" style="endArrow=none;html=1;rounded=0;fontSize=12;startSize=8;endSize=8;curved=1;entryX=1;entryY=1;entryDx=0;entryDy=0;exitX=0;exitY=0;exitDx=0;exitDy=0;" parent="1" source="an_xKArvUmKsYVzUiVtq-6" target="an_xKArvUmKsYVzUiVtq-319" edge="1">
          <mxGeometry width="50" height="50" relative="1" as="geometry">
            <mxPoint x="984" y="218" as="sourcePoint" />
            <mxPoint x="1034" y="168" as="targetPoint" />
          </mxGeometry>
        </mxCell>
        <mxCell id="rn4Tuk3TMcYPcY3QAkJP-5" value="" style="endArrow=none;html=1;rounded=0;fontSize=12;startSize=8;endSize=8;curved=1;exitX=0.5;exitY=0;exitDx=0;exitDy=0;" parent="1" source="an_xKArvUmKsYVzUiVtq-6" edge="1">
          <mxGeometry width="50" height="50" relative="1" as="geometry">
            <mxPoint x="739" y="182" as="sourcePoint" />
            <mxPoint x="572" y="48" as="targetPoint" />
          </mxGeometry>
        </mxCell>
        <mxCell id="rn4Tuk3TMcYPcY3QAkJP-6" value="" style="endArrow=none;html=1;rounded=0;fontSize=12;startSize=8;endSize=8;curved=1;entryX=0.3;entryY=1;entryDx=0;entryDy=0;exitX=0.75;exitY=0;exitDx=0;exitDy=0;entryPerimeter=0;" parent="1" source="an_xKArvUmKsYVzUiVtq-6" target="rn4Tuk3TMcYPcY3QAkJP-1" edge="1">
          <mxGeometry width="50" height="50" relative="1" as="geometry">
            <mxPoint x="536" y="276" as="sourcePoint" />
            <mxPoint x="373" y="142" as="targetPoint" />
          </mxGeometry>
        </mxCell>
        <mxCell id="rn4Tuk3TMcYPcY3QAkJP-7" value="" style="endArrow=none;html=1;rounded=0;fontSize=12;startSize=8;endSize=8;curved=1;entryX=1;entryY=0.5;entryDx=0;entryDy=0;exitX=0;exitY=1;exitDx=0;exitDy=0;" parent="1" source="an_xKArvUmKsYVzUiVtq-6" target="an_xKArvUmKsYVzUiVtq-215" edge="1">
          <mxGeometry width="50" height="50" relative="1" as="geometry">
            <mxPoint x="984" y="218" as="sourcePoint" />
            <mxPoint x="1034" y="168" as="targetPoint" />
          </mxGeometry>
        </mxCell>
        <mxCell id="rn4Tuk3TMcYPcY3QAkJP-8" value="" style="endArrow=none;html=1;rounded=0;fontSize=12;startSize=8;endSize=8;curved=1;exitX=0.68;exitY=-0.1;exitDx=0;exitDy=0;exitPerimeter=0;entryX=0.25;entryY=1;entryDx=0;entryDy=0;" parent="1" source="an_xKArvUmKsYVzUiVtq-220" target="an_xKArvUmKsYVzUiVtq-6" edge="1">
          <mxGeometry width="50" height="50" relative="1" as="geometry">
            <mxPoint x="984" y="218" as="sourcePoint" />
            <mxPoint x="1034" y="168" as="targetPoint" />
          </mxGeometry>
        </mxCell>
        <mxCell id="rn4Tuk3TMcYPcY3QAkJP-9" value="0...N" style="text;html=1;align=center;verticalAlign=middle;whiteSpace=wrap;rounded=0;" parent="1" vertex="1">
          <mxGeometry x="1524" y="96" width="60" height="30" as="geometry" />
        </mxCell>
        <mxCell id="f-Gr9zm8_yFh1XqmEJyx-2" value="" style="endArrow=none;html=1;rounded=0;fontSize=12;startSize=8;endSize=8;curved=1;" edge="1" parent="1" target="f-Gr9zm8_yFh1XqmEJyx-3">
          <mxGeometry width="50" height="50" relative="1" as="geometry">
            <mxPoint x="108" y="696" as="sourcePoint" />
            <mxPoint x="384" y="984" as="targetPoint" />
            <Array as="points">
              <mxPoint x="120" y="612" />
            </Array>
          </mxGeometry>
        </mxCell>
        <mxCell id="f-Gr9zm8_yFh1XqmEJyx-3" value="" style="rhombus;whiteSpace=wrap;html=1;" vertex="1" parent="1">
          <mxGeometry x="216" y="492" width="120" height="80" as="geometry" />
        </mxCell>
        <mxCell id="f-Gr9zm8_yFh1XqmEJyx-4" value="" style="endArrow=none;html=1;rounded=0;fontSize=12;startSize=8;endSize=8;curved=1;exitX=0.25;exitY=0;exitDx=0;exitDy=0;" edge="1" parent="1" source="an_xKArvUmKsYVzUiVtq-172">
          <mxGeometry width="50" height="50" relative="1" as="geometry">
            <mxPoint x="828" y="698" as="sourcePoint" />
            <mxPoint x="108" y="696" as="targetPoint" />
            <Array as="points">
              <mxPoint x="168" y="852" />
              <mxPoint x="96" y="768" />
            </Array>
          </mxGeometry>
        </mxCell>
        <mxCell id="f-Gr9zm8_yFh1XqmEJyx-5" value="" style="endArrow=none;html=1;rounded=0;fontSize=12;startSize=8;endSize=8;curved=1;entryX=0.356;entryY=1.024;entryDx=0;entryDy=0;entryPerimeter=0;exitX=1;exitY=0.5;exitDx=0;exitDy=0;" edge="1" parent="1" source="f-Gr9zm8_yFh1XqmEJyx-3" target="an_xKArvUmKsYVzUiVtq-6">
          <mxGeometry width="50" height="50" relative="1" as="geometry">
            <mxPoint x="492" y="528" as="sourcePoint" />
            <mxPoint x="878" y="420" as="targetPoint" />
            <Array as="points">
              <mxPoint x="528" y="528" />
            </Array>
          </mxGeometry>
        </mxCell>
        <mxCell id="f-Gr9zm8_yFh1XqmEJyx-6" value="Realiza" style="text;html=1;align=center;verticalAlign=middle;whiteSpace=wrap;rounded=0;" vertex="1" parent="1">
          <mxGeometry x="240" y="516" width="60" height="30" as="geometry" />
        </mxCell>
        <mxCell id="f-Gr9zm8_yFh1XqmEJyx-7" value="1" style="text;html=1;align=center;verticalAlign=middle;whiteSpace=wrap;rounded=0;" vertex="1" parent="1">
          <mxGeometry x="300" y="924" width="60" height="30" as="geometry" />
        </mxCell>
        <mxCell id="f-Gr9zm8_yFh1XqmEJyx-8" value="N" style="text;html=1;align=center;verticalAlign=middle;whiteSpace=wrap;rounded=0;" vertex="1" parent="1">
          <mxGeometry x="432" y="456" width="60" height="30" as="geometry" />
        </mxCell>
      </root>
    </mxGraphModel>
  </diagram>
</mxfile>
